<?xml version="1.0" encoding="utf-8"?>
<!-- Generator: Adobe Illustrator 24.1.3, SVG Export Plug-In . SVG Version: 6.00 Build 0)  -->
<svg version="1.1" id="Layer_1" xmlns="http://www.w3.org/2000/svg" xmlns:xlink="http://www.w3.org/1999/xlink" x="0px" y="0px"
	 viewBox="0 0 2000 435.1" style="enable-background:new 0 0 2000 435.1;" xml:space="preserve">
<style type="text/css">
	.st0{fill-rule:evenodd;clip-rule:evenodd;fill:#EAEAEA;}
	.st1{fill:#EAEAEA;}
</style>
<path class="st0" d="M41.9,369.3c-44-12.6-51.4-38.5-31.3-53.5c18.6-13.9,50.2-24.2,50.2-24.2L191.3,245v53.1l-93.9,33.8
	c-16.6,6.1-19.2,14.5-5.7,18.9s37.9,3.2,54.5-2.8l45-16.4v47.5c-2.8,0.5-6.1,1-9,1.5C135.3,388.2,87.1,384.4,41.9,369.3L41.9,369.3z
	 M317.3,374.9l146.5-52.3c16.6-6.1,19.2-14.4,5.7-18.8s-37.9-3.2-54.5,2.8L317.3,341v-54.9l5.7-1.9c22.1-7.1,44.8-12,67.8-14.4
	c39.7-4.4,88.2,0.6,126.3,15.1c43,13.6,47.8,33.6,36.9,47.4S516.4,356,516.4,356l-199,71.6L317.3,374.9L317.3,374.9z M334.4,34.7
	c77.1,26.6,103.3,59.8,103.3,134.4c0,72.8-44.7,100.3-101.4,72.8V106.2c0-15.9-2.9-30.6-17.8-34.7c-11.4-3.7-18.4,7-18.4,22.9V434
	L209,404.8V0C247.7,7.2,304.1,24.2,334.4,34.7L334.4,34.7z M530.2,406.3c0.1,1.1-0.3,2.2-1.1,2.9c-1,0.6-2.2,0.9-3.3,0.8h-7v-7.2
	h7.4c0.8,0,1.7,0.1,2.4,0.4C529.7,403.8,530.3,405.1,530.2,406.3L530.2,406.3z M535.2,422.8c-0.4-0.2-0.7-0.7-0.7-1.1
	c-0.1-0.7-0.2-1.3-0.2-2l-0.1-3.3c0.1-1.2-0.3-2.4-0.9-3.4c-0.4-0.5-0.9-0.9-1.5-1.3c0.8-0.5,1.4-1.1,1.9-1.9c0.7-1.2,1-2.5,1-3.9
	c0.2-2.7-1.3-5.2-3.7-6.3c-1.5-0.6-3.1-0.9-4.8-0.9h-11.7v25.6h4.4v-10.5h6.9c0.9-0.1,1.8,0.1,2.7,0.4c1,0.6,1.5,1.6,1.4,2.7l0.2,4
	c0,0.7,0.1,1.4,0.2,2c0.1,0.3,0.2,0.7,0.3,1l0.2,0.3h4.9v-1.5L535.2,422.8L535.2,422.8z M505.2,412.1c0-5.1,2-9.9,5.5-13.5
	c7.2-7.4,19-7.5,26.3-0.3l0.3,0.3c7.4,7.6,7.3,19.7-0.2,27.2c-3.5,3.4-8.2,5.4-13.1,5.5c-5,0-9.8-2-13.3-5.6
	C507.1,422,505.2,417.2,505.2,412.1z M524,435.1c6,0,11.8-2.4,16-6.8c8.9-9,8.9-23.5,0-32.5c-4.2-4.3-10-6.7-16-6.7
	c-12.7,0.2-22.9,10.8-22.6,23.5c0.1,5.9,2.5,11.5,6.6,15.8C512.2,432.7,518,435.1,524,435.1z"/>
<path class="st1" d="M1958.8,348h-3.9v-26.5h-8.9v-3.7h21.7v3.7h-8.9L1958.8,348L1958.8,348z M1985.7,340.9l8.3-23.2h6.1V348h-4
	v-25.3l-9.2,25.3h-2.5l-9.1-25.3V348h-3.8v-30.3h6.1L1985.7,340.9L1985.7,340.9z M1907.2,86.7h-371.3v100.7c0,0-1.1,38.9,46.9,38.9
	h227c8.9-0.1,17.7,1.7,25.9,5.3c12.7,5.7,26.9,17.2,26.9,40.4c0,20.8-10.1,32.7-20.1,39.3c-8.3,5.3-17.9,8.1-27.8,8.1h-278.9v28.3
	h311c0,0,70.6-2.9,70.6-75.5c0-36.9-21.6-55.2-40.9-64.2c-12.5-5.8-26.2-8.7-40-8.7h-225c-3.7,0-7.5-0.8-10.8-2.6
	c-4.8-2.6-10.1-7.8-10.1-17.9v-64.1h316.5L1907.2,86.7L1907.2,86.7z M1068.4,319.1v28.3H1226c18.8,0.2,37.1-6.4,51.5-18.6
	c15-12.7,23.4-31.5,23-51.2V157.4c-0.2-13.3,5.8-26,16.1-34.3c7.3-5.7,16.2-8.7,25.4-8.6h137.4V86.7h-163.7c0,0-70.6,1.1-70.6,75.8
	v112.2c0.1,9.2-2.4,18.2-7.1,26.1c-7.1,11.8-20,18.9-33.7,18.4L1068.4,319.1L1068.4,319.1z M704.5,86.7v27.9h280.9
	c7.8-0.1,15.5,1.6,22.6,4.9c11.1,5.2,23.7,16,23.7,37.8c0,21.2-12.5,31.8-23.7,37c-7.2,3.3-15.1,5-23,4.9H776.7
	c-12.3-0.1-24.5,2.6-35.6,8.1c-17.3,8.7-36.6,29.2-36.6,63V347h54.1v-76.3c0-5,0.9-9.9,2.6-14.5c4.5-11.4,15.7-29.8,42.1-29.8h210.1
	c7.1,0,14.1-0.9,20.9-2.8c19.3-5.5,51.5-21.4,51.5-66.2c0-69.7-69.4-70.5-69.4-70.5H704.5V86.7z"/>
</svg>
