<?xml version="1.0" encoding="utf-8"?>
<!-- Generator: Adobe Illustrator 24.1.3, SVG Export Plug-In . SVG Version: 6.00 Build 0)  -->
<svg version="1.1" id="Layer_1" xmlns="http://www.w3.org/2000/svg" xmlns:xlink="http://www.w3.org/1999/xlink" x="0px" y="0px"
	 viewBox="0 0 1500 336.9" style="enable-background:new 0 0 1500 336.9;" xml:space="preserve">
<style type="text/css">
	.st0{fill:#EAEAEA;}
</style>
<path class="st0" d="M1410.2,0c-49.6,0-89.8,40.2-89.8,89.8c0,49.6,40.2,89.8,89.8,89.8c49.6,0,89.8-40.2,89.8-89.8
	C1500,40.2,1459.8,0,1410.2,0z M1430.4,30.9c3.3-5.7,10.7-7.7,16.4-4.4c5.7,3.3,7.7,10.7,4.4,16.4c-3.4,5.8-10.7,7.7-16.4,4.4
	C1429,44,1427.1,36.6,1430.4,30.9z M1410.2,37.6c4.7,0,9.4,0.6,13.9,1.9c0.8,5,3.8,9.4,8.2,11.9c4.4,2.6,9.7,3,14.4,1.2
	c8.9,8.7,14.7,20.6,15.5,33.8l-17.1,0.3c-1.6-17.9-16.6-31.9-34.9-31.9c-5.1,0-10.1,1.1-14.8,3.1l-8.3-14.9
	C1394.1,39.5,1401.9,37.6,1410.2,37.6z M1349.2,101.8c-6.6,0-12-5.4-12-12c0-6.6,5.4-12,12-12c6.4,0.1,11.6,5.3,11.8,11.8
	C1361.1,96.2,1355.8,101.7,1349.2,101.8z M1359.8,103c3.9-3.2,6.2-8,6.2-13.1s-2.3-9.9-6.2-13.1c3.2-12.6,11-23.3,21.5-30.3
	l8.8,14.7c-9,6.3-14.9,16.8-14.9,28.6c0,11.8,5.9,22.3,14.9,28.8l-8.8,14.7C1370.8,126.3,1363,115.5,1359.8,103z M1446.8,153.1
	c-5.8,3.3-13.1,1.3-16.4-4.4c-3.3-5.8-1.3-13.1,4.4-16.4c5.7-3.3,13-1.4,16.4,4.4C1454.5,142.5,1452.5,149.8,1446.8,153.1z
	 M1446.8,126.8c-4.8-1.8-10-1.3-14.4,1.2s-7.4,6.9-8.2,11.9c-12.4,3.4-25.5,2.2-37-3.5l8.3-14.9c4.4,2.1,9.4,3.3,14.7,3.3
	c18.3,0,33.3-14,35-32.1l17.1,0.3C1461.4,106.2,1455.7,118.1,1446.8,126.8z"/>
<path class="st0" d="M179.5,325.3c-9.1,2.3-21.2,4.7-36.1,7.3c-15,2.6-32.3,3.8-51.9,3.8c-17.1,0-31.5-2.5-43.2-7.5
	s-21.1-12-28.2-21.2c-7.1-9.1-12.3-19.9-15.4-32.3c-3.1-12.3-4.7-26-4.7-41.1V109.5h39.8v116.3c0,27.1,4.3,46.5,12.8,58.1
	c8.5,11.7,22.9,17.5,43.2,17.5c4.3,0,8.7-0.1,13.3-0.4c4.6-0.3,8.8-0.6,12.8-1.1c4-0.4,7.6-0.9,10.9-1.3c3.3-0.4,5.6-0.9,7.1-1.5
	V109.5h39.8L179.5,325.3z M276.6,119.3c4.8-3.1,12.2-6.4,22-9.8s21.2-5.1,34-5.1c16,0,30.1,2.8,42.5,8.5s22.9,13.7,31.4,23.9
	c8.6,10.3,15,22.5,19.5,36.8c4.4,14.3,6.6,29.9,6.6,47c0,18-2.6,34.1-7.9,48.5s-12.8,26.6-22.4,36.5c-9.7,10-21.4,17.7-35.1,23.1
	s-29.1,8.1-46.2,8.1c-18.5,0-34.9-1.3-49.2-3.8c-14.3-2.6-25.9-5.1-35.1-7.7V6.9L276.6,0V119.3L276.6,119.3z M276.6,297.1
	c4,1.1,9.6,2.2,16.9,3.2s16.3,1.5,27.1,1.5c21.4,0,38.5-7.1,51.3-21.2s19.2-34.1,19.2-60.1c0-11.4-1.1-22.1-3.4-32.1
	s-6-18.6-11.1-25.9c-5.1-7.3-11.8-13-19.9-17.1s-17.9-6.2-29.3-6.2c-10.8,0-20.8,1.9-29.9,5.6c-9.1,3.7-16.1,7.6-20.9,11.5
	L276.6,297.1L276.6,297.1z M654.5,325.3c-9.1,2.3-21.2,4.7-36.1,7.3c-15,2.6-32.3,3.8-51.9,3.8c-17.1,0-31.5-2.5-43.2-7.5
	s-21.1-12-28.2-21.2c-7.1-9.1-12.3-19.9-15.4-32.3s-4.7-26.1-4.7-41.3V109.5h39.8v116.3c0,27.1,4.3,46.5,12.8,58.1
	c8.5,11.7,22.9,17.5,43.2,17.5c4.3,0,8.7-0.1,13.3-0.4s8.8-0.6,12.8-1.1c4-0.4,7.6-0.9,10.9-1.3c3.3-0.4,5.6-0.9,7.1-1.5V109.5h39.8
	L654.5,325.3L654.5,325.3z M711.7,115.9c9.1-2.3,21.2-4.7,36.3-7.3c15.1-2.6,32.5-3.8,52.1-3.8c17.7,0,32.3,2.5,44,7.5
	s21,12,28,20.9c7,9,11.9,19.7,14.7,32.3c2.8,12.5,4.3,26.4,4.3,41.5v124.8h-39.8V215.5c0-13.7-0.9-25.4-2.8-35.1
	c-1.9-9.7-4.9-17.5-9.2-23.5s-10-10.3-17.1-13s-16-4.1-26.5-4.1c-4.3,0-8.7,0.1-13.3,0.4c-4.6,0.3-8.9,0.6-13,1.1
	c-4.1,0.4-7.8,0.9-11.1,1.5s-5.6,1-7.1,1.3v187.7h-39.8L711.7,115.9L711.7,115.9z M983.2,109.5h84.2v33.3h-84.2v102.6
	c0,11.1,0.9,20.3,2.6,27.6c1.7,7.3,4.3,13,7.7,17.1s7.7,7.1,12.8,8.8c5.1,1.7,11.1,2.6,18,2.6c12.3,0,21.9-1.4,29.1-4.1
	c7.1-2.7,12-4.6,14.5-5.8l8.5,32.5c-4,2-11,4.6-21.2,7.7c-10.1,3.1-21.6,4.7-34.4,4.7c-15.1,0-27.6-1.9-37.4-5.8
	c-9.8-3.8-17.7-9.6-23.7-17.3c-6-7.7-10.2-17.2-12.6-28.4c-2.4-11.3-3.6-24.3-3.6-39.1V47.5l39.8-6.8L983.2,109.5L983.2,109.5z
	 M1283.7,325.3c-9.1,2.3-21.2,4.7-36.1,7.3c-15,2.6-32.3,3.8-51.9,3.8c-17.1,0-31.5-2.5-43.2-7.5s-21.1-12-28.2-21.2
	c-7.1-9.1-12.3-19.9-15.4-32.3s-4.7-26.1-4.7-41.3V109.5h39.8v116.3c0,27.1,4.3,46.5,12.8,58.1c8.5,11.7,22.9,17.5,43.2,17.5
	c4.3,0,8.7-0.1,13.3-0.4c4.6-0.3,8.8-0.6,12.8-1.1c4-0.4,7.6-0.9,10.9-1.3s5.6-0.9,7.1-1.5V109.5h39.8L1283.7,325.3L1283.7,325.3z"
	/>
</svg>
