<?xml version="1.0" encoding="utf-8"?>
<!-- Generator: Adobe Illustrator 24.1.3, SVG Export Plug-In . SVG Version: 6.00 Build 0)  -->
<svg version="1.1" id="Camada_1" xmlns="http://www.w3.org/2000/svg" xmlns:xlink="http://www.w3.org/1999/xlink" x="0px" y="0px"
	 viewBox="0 0 1500 276.7" style="enable-background:new 0 0 1500 276.7;" xml:space="preserve">
<style type="text/css">
	.st0{opacity:0.991;fill-rule:evenodd;clip-rule:evenodd;fill:#EAEAEA;enable-background:new    ;}
	.st1{opacity:0.969;fill-rule:evenodd;clip-rule:evenodd;fill:#EAEAEA;enable-background:new    ;}
	.st2{opacity:0.953;fill-rule:evenodd;clip-rule:evenodd;fill:#EAEAEA;enable-background:new    ;}
	.st3{opacity:0.962;fill-rule:evenodd;clip-rule:evenodd;fill:#EAEAEA;enable-background:new    ;}
	.st4{opacity:0.985;fill-rule:evenodd;clip-rule:evenodd;fill:#EAEAEA;enable-background:new    ;}
	.st5{opacity:0.97;fill-rule:evenodd;clip-rule:evenodd;fill:#EAEAEA;enable-background:new    ;}
	.st6{opacity:0.971;fill-rule:evenodd;clip-rule:evenodd;fill:#EAEAEA;enable-background:new    ;}
	.st7{opacity:0.966;fill-rule:evenodd;clip-rule:evenodd;fill:#EAEAEA;enable-background:new    ;}
	.st8{opacity:0.972;fill-rule:evenodd;clip-rule:evenodd;fill:#EAEAEA;enable-background:new    ;}
	.st9{opacity:0.957;fill-rule:evenodd;clip-rule:evenodd;fill:#EAEAEA;enable-background:new    ;}
</style>
<path class="st0" d="M0,0h134.2v134.2H0V0z M142.5,0h134.2v134.2H142.5V0z"/>
<path class="st1" d="M870,45.8h27.5v175.8H870c0.1-5.3,0-10.6-0.4-15.8c-10.4,11.8-23.6,17.6-39.6,17.5
	c-21.2,0.1-35.8-9.7-43.8-29.2c-4.7-15.6-5.8-31.4-3.3-47.5c6.8-33.5,27.3-48.9,61.3-46.3c10.1,1.1,18.4,5.4,25,12.9
	C870,90.8,870.3,68.3,870,45.8z M835.8,122.5c17.9-1.3,29.2,6.8,33.8,24.2c0.6,8.6,0.6,17.2,0,25.8c-3.9,21.9-16.8,31.2-38.8,27.9
	c-7.2-2.5-12.6-7-16.3-13.8c-5.8-15.2-6.1-30.4-0.8-45.8C818,130.8,825.4,124.7,835.8,122.5L835.8,122.5z"/>
<path class="st2" d="M609.2,51.7c12.5-1.6,19.7,3.7,21.7,15.8c-0.2,6.7-3.2,11.6-9.2,14.6c-10.2,3.6-18.1,1-23.8-7.9
	C595,63.3,598.8,55.8,609.2,51.7z"/>
<path class="st3" d="M1403.3,51.7h13.3v170h-28.3c0.1-45.3,0-90.6-0.4-135.8c-10.4,7.4-21.9,12.1-34.6,14.2
	c-0.3-7.8,0-15.6,0.8-23.3C1372.1,71.2,1388.5,62.8,1403.3,51.7L1403.3,51.7z"/>
<path class="st4" d="M1487.5,51.7h12.5v170h-27.5c0.1-45.3,0-90.6-0.4-135.8c-10.5,7.1-22,11.9-34.6,14.2c-0.3-8,0-15.9,0.8-23.8
	C1456.2,70.7,1472.6,62.5,1487.5,51.7L1487.5,51.7z"/>
<path class="st5" d="M360,55.8c5.1-0.6,10.4-0.8,15.8-0.8c5.6,0,11,0.6,16.3,1.7c11.2,44.1,22.1,88.2,32.5,132.5
	c11.8-44.3,24.1-88.4,36.7-132.5c9.9-1.6,20.1-2.2,30.4-1.7c11.2,44.4,22.5,88.9,33.8,133.3c10.3-43.9,20.8-87.8,31.7-131.7
	c9.7-1.6,19.5-2.2,29.6-1.7c-14.8,55.6-29.8,111.2-45,166.7c-11,0.3-22,0-32.9-0.8c-12-42.3-23.4-84.8-34.2-127.5
	c-10.7,42.7-22.1,85.2-34.2,127.5c-10.9,1-21.9,1.1-32.9,0.4C391.7,166,375.9,110.9,360,55.8z"/>
<path class="st6" d="M970.8,99.2c43.8-2.4,66.6,18.3,68.3,62.1c0.8,23.5-8.4,41.8-27.5,55c-16.1,7.9-33.1,10.2-50.8,6.7
	c-23.1-5.9-37.1-20.4-42.1-43.8c-3.5-18.7-1-36.4,7.5-53.3C937,110,951.8,101.1,970.8,99.2L970.8,99.2z M975,122.5
	c19.7-0.5,31.2,8.9,34.6,28.3c1.7,10.7,0.8,21.3-2.5,31.7c-7.2,14.9-19,20.9-35.4,17.9c-11.5-2.4-19.2-9.2-22.9-20.4
	c-4.4-14.2-3.5-28.1,2.5-41.7C956.8,129.4,964.7,124.1,975,122.5L975,122.5z"/>
<path class="st7" d="M1265.8,99.2c12.3-0.8,24.2,0.9,35.8,5c0.1,8.9,0,17.8-0.4,26.7c-10.1-7.3-21.3-10.2-33.8-8.7
	c-10.6,4.2-12.9,11.1-6.7,20.8c9.2,5.2,18.6,9.9,28.3,14.2c17.4,10.3,22.8,25.2,16.3,44.6c-7.4,13.5-18.9,20.9-34.6,22.1
	c-14.4,1.9-28.3,0.1-41.7-5.4c-1.1-9.2-1.1-18.3,0-27.5c12.3,8.8,25.9,12,40.8,9.6c10.5-4.1,12.5-10.8,5.8-20
	c-9.6-4.9-19.3-9.7-29.2-14.2c-18.3-12.4-22.6-28.7-12.9-48.8C1242,107.2,1252.7,101.1,1265.8,99.2L1265.8,99.2z"/>
<path class="st8" d="M711.7,100c31.2-3.4,47.7,10.5,49.6,41.7c0.4,26.7,0.6,53.3,0.4,80h-27.5c0.1-22.5,0-45-0.4-67.5
	c0.5-10.9-3-20.2-10.4-27.9c-12.8-6.6-24.1-4.5-33.8,6.3c-4.4,6.2-6.6,13.2-6.7,20.8c-0.4,22.8-0.6,45.6-0.4,68.3H655V102.5h27.5
	c-0.1,5,0,10,0.4,15c4.1-5.6,9.2-9.9,15.4-12.9C702.8,102.8,707.2,101.2,711.7,100L711.7,100z"/>
<path class="st9" d="M599.2,102.5h28.3v119.2h-28.3V102.5z"/>
<path class="st7" d="M1045,102.5h29.2c7,30.4,14.3,60.7,22.1,90.8c8.8-30.3,17.6-60.5,26.3-90.8c8.9-0.3,17.8,0,26.7,0.8
	c8.2,30.5,16.1,61,23.8,91.7c7.4-30.6,14.7-61.1,22.1-91.7c8.9-0.8,17.8-1.1,26.7-0.8c-11.7,39.7-23.3,79.4-35,119.2
	c-9.9,0.3-19.8,0-29.6-0.8c-7.9-28.4-15.9-56.7-24.2-85c-8.1,28.3-16.1,56.7-24.2,85c-9.5,1-19.1,1.1-28.8,0.4
	C1067.9,181.8,1056.3,142.2,1045,102.5L1045,102.5z"/>
<path class="st0" d="M0,142.5h134.2v134.2H0V142.5z M142.5,142.5h134.2v134.2H142.5V142.5z"/>
</svg>
