<?xml version="1.0" encoding="utf-8"?>
<!-- Generator: Adobe Illustrator 24.1.3, SVG Export Plug-In . SVG Version: 6.00 Build 0)  -->
<svg version="1.1" id="Camada_1" xmlns="http://www.w3.org/2000/svg" xmlns:xlink="http://www.w3.org/1999/xlink" x="0px" y="0px"
	 viewBox="0 0 1500 455.9" style="enable-background:new 0 0 1500 455.9;" xml:space="preserve">
<style type="text/css">
	.st0{fill:#EAEAEA;}
</style>
<path class="st0" d="M1464.1,368.3l-87.4-118.6l-87.3,118.6h-35.9l105-143.2l-95.9-130.2h35.9l78.2,106.2l78.2-106.2h35.9L1395,225
	l105,143.3H1464.1z M783.4,368.2L678.2,225l95.9-130.2h-35.9L660,201L581.9,94.8H546L641.9,225L536.8,368.2h36l87.3-118.5
	l87.3,118.5L783.4,368.2L783.4,368.2z"/>
<path class="st0" d="M983.3,235.3c-5.4-4.6-11.4-8.5-17.9-11.4c20.3-10.8,32.9-31.8,32.9-54.8c0-17.5-6.4-74.4-88.9-74.4h-111v117.9
	h-37c-4.8,6.3-15.7,21.3-19.8,27.4h56.8v128.1h111.1c60.2,0,97.5-30.5,97.5-79.8C1006.9,266.9,998.7,248.6,983.3,235.3 M829,123.3
	h80.4c21.7,0,58.2,5.4,58.2,43.4c0,28.8-21.2,45.9-58.2,45.9H829V123.3z M909.3,339.7H829v-99.5h80.4c30.5,0,66.9,8.4,66.9,47.6
	C976.2,333,934.3,339.7,909.3,339.7 M1151.3,88.5c-76.8,0-130.5,58.7-130.5,142.9s53.7,142.9,130.5,142.9
	c76.7,0,130.3-58.7,130.3-142.9S1228,88.5,1151.3,88.5 M1151.3,345.4c-58.5,0-99.5-46.9-99.5-114s41-114,99.5-114
	c58.4,0,99.2,46.9,99.2,114S1209.7,345.4,1151.3,345.4 M68,65.5l-0.2,0.2C24.4,108.5-0.1,167,0,227.9
	c-0.1,49.9,16.3,98.4,46.6,138.1c0.3,0.4,0.8,0.6,1.2,0.4s0.4-0.7,0.3-1.2c-17.4-53.7,71.4-184,117.3-238.6c0.1-0.2,0.3-0.4,0.3-0.7
	c0-0.3-0.2-0.6-0.4-0.7C88.1,48.4,67.5,66,67.8,65.7 M387.9,65.5l0.2,0.2c43.4,42.8,67.9,101.2,67.8,162.2
	c0.1,49.9-16.3,98.4-46.6,138.1c-0.3,0.4-0.8,0.6-1.2,0.4c-0.4-0.2-0.4-0.7-0.3-1.2c17.4-53.7-71.4-184.1-117.2-238.7
	c-0.2-0.2-0.3-0.4-0.3-0.6c0-0.3,0.2-0.6,0.4-0.8C367.8,48.3,388.3,66,388,65.7 M227.9,0c46,0,83.8,12.6,118.7,33.4
	c0.4,0.2,0.6,0.7,0.4,1.1c-0.2,0.4-0.6,0.5-1.1,0.4c-44.1-9.5-111.2,28.6-117.5,32.4c-0.1,0.1-0.3,0.2-0.5,0.2s-0.4-0.1-0.5-0.2
	c-16.8-9.7-78.8-42.2-117.9-32.2c-0.4,0.1-0.9,0-1.1-0.4s0-0.9,0.4-1.1C143.7,12.6,182.1,0,227.9,0 M227.9,182.8
	c0.3,0,0.6,0.2,0.7,0.4c68.3,51.8,185,180,149.4,216.3c-41.5,36.4-94.8,56.5-150,56.4c-55.2,0.1-108.5-20-150-56.4
	C42.3,363.2,159,235,227.1,183.2C227.3,183,227.6,182.8,227.9,182.8"/>
</svg>
